<svg xmlns="http://www.w3.org/2000/svg" height="227pt" viewBox="0 0 553 227" width="553pt" xmlns:xlink="http://www.w3.org/1999/xlink" preserveAspectRatio="xMidYMid meet" style="font-family: var(--svg-font-family); color: var(--ink); max-width: 100%; height: auto;"><g class="graph" id="graph0" transform="scale(1 1) rotate(0) translate(4 223)"><title>PacketSwitching</title><g class="node" id="node1"><title>Sender</title><polygon fill="none" points="9.5,-115.5 9.5,-134.5 136.5,-134.5 136.5,-115.5 9.5,-115.5" stroke="var(--ink)"></polygon><text font-family="var(--svg-font-family)" font-size="var(--svg-font-size-label)" font-weight="var(--svg-font-weight-bold)" text-anchor="start" x="54.5" y="-122.9">发送方</text><polygon fill="none" points="9.5,-83.5 9.5,-115.5 136.5,-115.5 136.5,-83.5 9.5,-83.5" stroke="var(--ink)"></polygon><text font-family="var(--svg-font-family)" font-size="var(--svg-font-size-label)" text-anchor="start" x="24.5" y="-102.9">将消息拆分为分组</text><text font-family="var(--svg-font-family)" font-size="var(--svg-font-size-label)" text-anchor="start" x="12.5" y="-89.9">每个分组附带头部信息</text><polygon fill="none" points="8,-83 8,-136 137,-136 137,-83 8,-83" stroke="var(--ink)"></polygon></g><g class="node" id="node2"><title>Node1</title><polygon fill="var(--cyan-light)" points="232,-162 232,-215 325,-215 325,-162 232,-162" stroke="transparent"></polygon><polygon fill="none" points="233.5,-194.5 233.5,-213.5 324.5,-213.5 324.5,-194.5 233.5,-194.5" stroke="var(--ink)"></polygon><text font-family="var(--svg-font-family)" font-size="var(--svg-font-size-label)" font-weight="var(--svg-font-weight-bold)" text-anchor="start" x="260.5" y="-201.9">节点 1</text><polygon fill="none" points="233.5,-162.5 233.5,-194.5 324.5,-194.5 324.5,-162.5 233.5,-162.5" stroke="var(--ink)"></polygon><text font-family="var(--svg-font-family)" font-size="var(--svg-font-size-label)" text-anchor="start" x="254.5" y="-181.9">接收分组</text><text font-family="var(--svg-font-family)" font-size="var(--svg-font-size-label)" text-anchor="start" x="236.5" y="-168.9">快速存储并转发</text><polygon fill="none" points="232,-162 232,-215 325,-215 325,-162 232,-162" stroke="var(--ink)"></polygon></g><g class="edge" id="edge1"><title>Sender-&gt;Node1</title><path d="M145.14-137.24c22.5-8.72 47.17-18.27 69.05-26.74" fill="none" stroke="var(--ink)"></path><polygon fill="var(--ink)" points="213.12,-167.32 223.7,-167.67 215.64,-160.79 213.12,-167.32" stroke="var(--ink)"></polygon><text font-family="var(--svg-font-family)" font-size="var(--svg-font-size-body)" text-anchor="middle" x="184.5" y="-164.3">分组 1</text></g><g class="node" id="node3"><title>Node2</title><polygon fill="var(--cyan-light)" points="232,-83 232,-136 325,-136 325,-83 232,-83" stroke="transparent"></polygon><polygon fill="none" points="233.5,-115.5 233.5,-134.5 324.5,-134.5 324.5,-115.5 233.5,-115.5" stroke="var(--ink)"></polygon><text font-family="var(--svg-font-family)" font-size="var(--svg-font-size-label)" font-weight="var(--svg-font-weight-bold)" text-anchor="start" x="260.5" y="-122.9">节点 2</text><polygon fill="none" points="233.5,-83.5 233.5,-115.5 324.5,-115.5 324.5,-83.5 233.5,-83.5" stroke="var(--ink)"></polygon><text font-family="var(--svg-font-family)" font-size="var(--svg-font-size-label)" text-anchor="start" x="254.5" y="-102.9">接收分组</text><text font-family="var(--svg-font-family)" font-size="var(--svg-font-size-label)" text-anchor="start" x="236.5" y="-89.9">快速存储并转发</text><polygon fill="none" points="232,-83 232,-136 325,-136 325,-83 232,-83" stroke="var(--ink)"></polygon></g><g class="edge" id="edge2"><title>Sender-&gt;Node2</title><path d="M145.14-109.5c22.3.0 46.73.0 68.46.0" fill="none" stroke="var(--ink)"></path><polygon fill="var(--ink)" points="213.7,-113 223.7,-109.5 213.7,-106 213.7,-113" stroke="var(--ink)"></polygon><text font-family="var(--svg-font-family)" font-size="var(--svg-font-size-body)" text-anchor="middle" x="184.5" y="-113.3">分组 2</text></g><g class="node" id="node4"><title>Node3</title><polygon fill="var(--cyan-light)" points="232,-4 232,-57 325,-57 325,-4 232,-4" stroke="transparent"></polygon><polygon fill="none" points="233.5,-36.5 233.5,-55.5 324.5,-55.5 324.5,-36.5 233.5,-36.5" stroke="var(--ink)"></polygon><text font-family="var(--svg-font-family)" font-size="var(--svg-font-size-label)" font-weight="var(--svg-font-weight-bold)" text-anchor="start" x="260.5" y="-43.9">节点 3</text><polygon fill="none" points="233.5,-4.5 233.5,-36.5 324.5,-36.5 324.5,-4.5 233.5,-4.5" stroke="var(--ink)"></polygon><text font-family="var(--svg-font-family)" font-size="var(--svg-font-size-label)" text-anchor="start" x="254.5" y="-23.9">接收分组</text><text font-family="var(--svg-font-family)" font-size="var(--svg-font-size-label)" text-anchor="start" x="236.5" y="-10.9">快速存储并转发</text><polygon fill="none" points="232,-4 232,-57 325,-57 325,-4 232,-4" stroke="var(--ink)"></polygon></g><g class="edge" id="edge3"><title>Sender-&gt;Node3</title><path d="M145.14-81.76c22.5 8.72 47.17 18.27 69.05 26.74" fill="none" stroke="var(--ink)"></path><polygon fill="var(--ink)" points="215.64,-58.21 223.7,-51.33 213.12,-51.68 215.64,-58.21" stroke="var(--ink)"></polygon><text font-family="var(--svg-font-family)" font-size="var(--svg-font-size-body)" text-anchor="middle" x="184.5" y="-78.3">分组 3</text></g><g class="node" id="node5"><title>Receiver</title><polygon fill="none" points="421.5,-115.5 421.5,-134.5 536.5,-134.5 536.5,-115.5 421.5,-115.5" stroke="var(--ink)"></polygon><text font-family="var(--svg-font-family)" font-size="var(--svg-font-size-label)" font-weight="var(--svg-font-weight-bold)" text-anchor="start" x="460.5" y="-122.9">接收方</text><polygon fill="none" points="421.5,-83.5 421.5,-115.5 536.5,-115.5 536.5,-83.5 421.5,-83.5" stroke="var(--ink)"></polygon><text font-family="var(--svg-font-family)" font-size="var(--svg-font-size-label)" text-anchor="start" x="442.5" y="-102.9">收到所有分组</text><text font-family="var(--svg-font-family)" font-size="var(--svg-font-size-label)" text-anchor="start" x="424.5" y="-89.9">根据序列号重组消息</text><polygon fill="none" points="420,-83 420,-136 537,-136 537,-83 420,-83" stroke="var(--ink)"></polygon></g><g class="edge" id="edge4"><title>Node1-&gt;Receiver</title><path d="M333.08-167.12C354.42-158.61 379.36-148.66 402.44-139.45" fill="none" stroke="var(--ink)"></path><polygon fill="var(--ink)" points="403.87,-142.64 411.87,-135.69 401.28,-136.14 403.87,-142.64" stroke="var(--ink)"></polygon><text font-family="var(--svg-font-family)" font-size="var(--svg-font-size-body)" text-anchor="middle" x="372.5" y="-161.3">分组 1</text></g><g class="edge" id="edge5"><title>Node2-&gt;Receiver</title><path d="M333.08-109.5c21.15.0 45.83.0 68.75.0" fill="none" stroke="var(--ink)"></path><polygon fill="var(--ink)" points="401.87,-113 411.87,-109.5 401.87,-106 401.87,-113" stroke="var(--ink)"></polygon><text font-family="var(--svg-font-family)" font-size="var(--svg-font-size-body)" text-anchor="middle" x="372.5" y="-113.3">分组 2</text></g><g class="edge" id="edge6"><title>Node3-&gt;Receiver</title><path d="M333.08-51.88c21.34-8.51 46.28-18.46 69.36-27.67" fill="none" stroke="var(--ink)"></path><polygon fill="var(--ink)" points="401.28,-82.86 411.87,-83.31 403.87,-76.36 401.28,-82.86" stroke="var(--ink)"></polygon><text font-family="var(--svg-font-family)" font-size="var(--svg-font-size-body)" text-anchor="middle" x="372.5" y="-78.3">分组 3</text></g></g></svg>