<svg xmlns="http://www.w3.org/2000/svg" height="260pt" viewBox="0 0 848 260" width="848pt" xmlns:xlink="http://www.w3.org/1999/xlink" preserveAspectRatio="xMidYMid meet" style="font-family: var(--svg-font-family); color: var(--ink); max-width: 100%; height: auto;"><g class="graph" id="graph0" transform="scale(1 1) rotate(0) translate(4 256)"><title>DetailedVerticalProtocolStack</title><g class="node" id="node1"><title>ARP</title><polygon fill="var(--rose-mid)" points="301,-36 236,-36 236,0 301,0 301,-36" stroke="var(--ink)"></polygon><text font-family="var(--svg-font-family)" font-size="var(--svg-font-size-label)" text-anchor="middle" x="268.5" y="-21.4">ARP</text><text font-family="var(--svg-font-family)" font-size="var(--svg-font-size-label)" text-anchor="middle" x="268.5" y="-8.4">地址解析</text></g><g class="node" id="node2"><title>PPP</title><polygon fill="var(--rose-mid)" points="396,-36 319,-36 319,0 396,0 396,-36" stroke="var(--ink)"></polygon><text font-family="var(--svg-font-family)" font-size="var(--svg-font-size-label)" text-anchor="middle" x="357.5" y="-21.4">PPP</text><text font-family="var(--svg-font-family)" font-size="var(--svg-font-size-label)" text-anchor="middle" x="357.5" y="-8.4">点对点传输</text></g><g class="node" id="node3"><title>HDLC</title><polygon fill="var(--rose-mid)" points="503,-36 414,-36 414,0 503,0 503,-36" stroke="var(--ink)"></polygon><text font-family="var(--svg-font-family)" font-size="var(--svg-font-size-label)" text-anchor="middle" x="458.5" y="-21.4">HDLC</text><text font-family="var(--svg-font-family)" font-size="var(--svg-font-size-label)" text-anchor="middle" x="458.5" y="-8.4">同步链路控制</text></g><g class="node" id="node4"><title>IP</title><polygon fill="var(--lime-mid)" points="408,-108 307,-108 307,-72 408,-72 408,-108" stroke="var(--ink)"></polygon><text font-family="var(--svg-font-family)" font-size="var(--svg-font-size-label)" text-anchor="middle" x="357.5" y="-93.4">IP</text><text font-family="var(--svg-font-family)" font-size="var(--svg-font-size-label)" text-anchor="middle" x="357.5" y="-80.4">无连接、不可靠</text></g><g class="edge" id="edge10"><title>IP-&gt;ARP</title><path d="M335.5-71.7c-11.21 8.82-25 19.67-37.15 29.23" fill="none" stroke="var(--ink)"></path><polygon fill="var(--ink)" points="300.27,-39.54 290.25,-36.1 295.94,-45.04 300.27,-39.54" stroke="var(--ink)"></polygon></g><g class="edge" id="edge11"><title>IP-&gt;PPP</title><path d="M357.5-71.7c0 7.72000000000001.0 16.99.0 25.59" fill="none" stroke="var(--ink)"></path><polygon fill="var(--ink)" points="361,-46.1 357.5,-36.1 354,-46.1 361,-46.1" stroke="var(--ink)"></polygon></g><g class="edge" id="edge12"><title>IP-&gt;HDLC</title><path d="M382.21-71.88c12.96 8.99 29.02 20.12 43.06 29.85" fill="none" stroke="var(--ink)"></path><polygon fill="var(--ink)" points="427.47,-44.76 433.7,-36.19 423.48,-39.01 427.47,-44.76" stroke="var(--ink)"></polygon></g><g class="node" id="node5"><title>ICMP</title><polygon fill="var(--lime-mid)" points="206,-108 141,-108 141,-72 206,-72 206,-108" stroke="var(--ink)"></polygon><text font-family="var(--svg-font-family)" font-size="var(--svg-font-size-label)" text-anchor="middle" x="173.5" y="-93.4">ICMP</text><text font-family="var(--svg-font-family)" font-size="var(--svg-font-size-label)" text-anchor="middle" x="173.5" y="-80.4">网络诊断</text></g><g class="edge" id="edge13"><title>ICMP-&gt;IP</title><path d="M192.81-108.25c8.69-6.98 19.49-14.14 30.69-17.75C250.99-134.87 260.44-132.88 288.5-126c11.15 2.73 22.5 7.62 32.69 12.93" fill="none" stroke="var(--ink)"></path><polygon fill="var(--ink)" points="323.11,-116.01 330.19,-108.13 319.74,-109.88 323.11,-116.01" stroke="var(--ink)"></polygon></g><g class="node" id="node6"><title>NAT</title><polygon fill="var(--lime-mid)" points="289,-108 224,-108 224,-72 289,-72 289,-108" stroke="var(--ink)"></polygon><text font-family="var(--svg-font-family)" font-size="var(--svg-font-size-label)" text-anchor="middle" x="256.5" y="-93.4">NAT</text><text font-family="var(--svg-font-family)" font-size="var(--svg-font-size-label)" text-anchor="middle" x="256.5" y="-80.4">地址转换</text></g><g class="edge" id="edge14"><title>NAT-&gt;IP</title><path d="M289.25-90C291.72-90 294.2-90 296.67-90" fill="none" stroke="var(--ink)"></path><polygon fill="var(--ink)" points="296.84,-93.5 306.84,-90 296.84,-86.5 296.84,-93.5" stroke="var(--ink)"></polygon></g><g class="node" id="node7"><title>RIP</title><polygon fill="var(--lime-mid)" points="739,-252 674,-252 674,-216 739,-216 739,-252" stroke="var(--ink)"></polygon><text font-family="var(--svg-font-family)" font-size="var(--svg-font-size-label)" text-anchor="middle" x="706.5" y="-237.4">RIP</text><text font-family="var(--svg-font-family)" font-size="var(--svg-font-size-label)" text-anchor="middle" x="706.5" y="-224.4">路由选择</text></g><g class="node" id="node11"><title>UDP</title><polygon fill="var(--sky-light)" points="709,-180 608,-180 608,-144 709,-144 709,-180" stroke="var(--ink)"></polygon><text font-family="var(--svg-font-family)" font-size="var(--svg-font-size-label)" text-anchor="middle" x="658.5" y="-165.4">UDP</text><text font-family="var(--svg-font-family)" font-size="var(--svg-font-size-label)" text-anchor="middle" x="658.5" y="-152.4">无连接、不可靠</text></g><g class="edge" id="edge15"><title>RIP-&gt;UDP</title><path d="M694.63-215.7C689-207.47 682.15-197.48 675.93-188.42" fill="none" stroke="var(--ink)"></path><polygon fill="var(--ink)" points="678.77,-186.37 670.23,-180.1 673,-190.33 678.77,-186.37" stroke="var(--ink)"></polygon></g><g class="node" id="node8"><title>OSPF</title><polygon fill="var(--lime-mid)" points="65,-252 0,-252 0,-216 65,-216 65,-252" stroke="var(--ink)"></polygon><text font-family="var(--svg-font-family)" font-size="var(--svg-font-size-label)" text-anchor="middle" x="32.5" y="-237.4">OSPF</text><text font-family="var(--svg-font-family)" font-size="var(--svg-font-size-label)" text-anchor="middle" x="32.5" y="-224.4">路由选择</text></g><g class="edge" id="edge16"><title>OSPF-&gt;IP</title><path d="M65.15-218.73c57.38 25.07 176.57 77.14 243.69 106.47" fill="none" stroke="var(--ink)"></path><polygon fill="var(--ink)" points="310.59,-115.31 318.35,-108.1 307.79,-108.9 310.59,-115.31" stroke="var(--ink)"></polygon></g><g class="node" id="node9"><title>BGP</title><polygon fill="var(--lime-mid)" points="148,-252 83,-252 83,-216 148,-216 148,-252" stroke="var(--ink)"></polygon><text font-family="var(--svg-font-family)" font-size="var(--svg-font-size-label)" text-anchor="middle" x="115.5" y="-237.4">BGP</text><text font-family="var(--svg-font-family)" font-size="var(--svg-font-size-label)" text-anchor="middle" x="115.5" y="-224.4">路由选择</text></g><g class="node" id="node10"><title>TCP</title><polygon fill="var(--sky-light)" points="408,-180 307,-180 307,-144 408,-144 408,-180" stroke="var(--ink)"></polygon><text font-family="var(--svg-font-family)" font-size="var(--svg-font-size-label)" text-anchor="middle" x="357.5" y="-165.4">TCP</text><text font-family="var(--svg-font-family)" font-size="var(--svg-font-size-label)" text-anchor="middle" x="357.5" y="-152.4">面向连接、可靠</text></g><g class="edge" id="edge17"><title>BGP-&gt;TCP</title><path d="M148.02-219.05C150.87-217.97 153.73-216.94 156.5-216c46.5 15.69 100.31 29.66 140.54 39.32" fill="none" stroke="var(--ink)"></path><polygon fill="var(--ink)" points="298.05,-180.04 306.97,-174.32 296.43,-173.23 298.05,-180.04" stroke="var(--ink)"></polygon></g><g class="edge" id="edge8"><title>TCP-&gt;IP</title><path d="M357.5-143.7c0 7.72.0 16.99.0 25.59" fill="none" stroke="var(--ink)"></path><polygon fill="var(--ink)" points="361,-118.1 357.5,-108.1 354,-118.1 361,-118.1" stroke="var(--ink)"></polygon></g><g class="edge" id="edge9"><title>UDP-&gt;IP</title><path d="M607.78-149.2c-52.4 12.18-134.16 31.19-189.86 44.15" fill="none" stroke="var(--ink)"></path><polygon fill="var(--ink)" points="418.71,-101.64 408.18,-102.79 417.12,-108.46 418.71,-101.64" stroke="var(--ink)"></polygon></g><g class="node" id="node12"><title>HTTP</title><polygon fill="var(--yellow-soft)" points="255,-252 166,-252 166,-216 255,-216 255,-252" stroke="var(--ink)"></polygon><text font-family="var(--svg-font-family)" font-size="var(--svg-font-size-label)" text-anchor="middle" x="210.5" y="-237.4">HTTP/HTTPS</text><text font-family="var(--svg-font-family)" font-size="var(--svg-font-size-label)" text-anchor="middle" x="210.5" y="-224.4">80/443, TCP</text></g><g class="edge" id="edge1"><title>HTTP-&gt;TCP</title><path d="M246.46-215.88C266.38-206.39 291.32-194.51 312.52-184.42" fill="none" stroke="var(--ink)"></path><polygon fill="var(--ink)" points="314.13,-187.53 321.66,-180.07 311.12,-181.21 314.13,-187.53" stroke="var(--ink)"></polygon></g><g class="node" id="node13"><title>FTP</title><polygon fill="var(--yellow-soft)" points="353.5,-252 273.5,-252 273.5,-216 353.5,-216 353.5,-252" stroke="var(--ink)"></polygon><text font-family="var(--svg-font-family)" font-size="var(--svg-font-size-label)" text-anchor="middle" x="313.5" y="-237.4">FTP</text><text font-family="var(--svg-font-family)" font-size="var(--svg-font-size-label)" text-anchor="middle" x="313.5" y="-224.4">20/21, TCP</text></g><g class="edge" id="edge2"><title>FTP-&gt;TCP</title><path d="M324.38-215.7C329.49-207.56 335.7-197.69 341.34-188.7" fill="none" stroke="var(--ink)"></path><polygon fill="var(--ink)" points="344.39,-190.43 346.75,-180.1 338.46,-186.71 344.39,-190.43" stroke="var(--ink)"></polygon></g><g class="node" id="node14"><title>SMTP</title><polygon fill="var(--yellow-soft)" points="433.5,-252 371.5,-252 371.5,-216 433.5,-216 433.5,-252" stroke="var(--ink)"></polygon><text font-family="var(--svg-font-family)" font-size="var(--svg-font-size-label)" text-anchor="middle" x="402.5" y="-237.4">SMTP</text><text font-family="var(--svg-font-family)" font-size="var(--svg-font-size-label)" text-anchor="middle" x="402.5" y="-224.4">25, TCP</text></g><g class="edge" id="edge3"><title>SMTP-&gt;TCP</title><path d="M391.38-215.7C386.14-207.56 379.8-197.69 374.02-188.7" fill="none" stroke="var(--ink)"></path><polygon fill="var(--ink)" points="376.85,-186.62 368.5,-180.1 370.96,-190.41 376.85,-186.62" stroke="var(--ink)"></polygon></g><g class="node" id="node15"><title>POP3</title><polygon fill="var(--yellow-soft)" points="547,-252 452,-252 452,-216 547,-216 547,-252" stroke="var(--ink)"></polygon><text font-family="var(--svg-font-family)" font-size="var(--svg-font-size-label)" text-anchor="middle" x="499.5" y="-237.4">POP3</text><text font-family="var(--svg-font-family)" font-size="var(--svg-font-size-label)" text-anchor="middle" x="499.5" y="-224.4">110/995, TCP</text></g><g class="edge" id="edge4"><title>POP3-&gt;TCP</title><path d="M464.76-215.88c-19.08 9.41-42.94 21.17-63.31 31.21" fill="none" stroke="var(--ink)"></path><polygon fill="var(--ink)" points="402.89,-181.47 392.37,-180.19 399.79,-187.75 402.89,-181.47" stroke="var(--ink)"></polygon></g><g class="node" id="node16"><title>DNS</title><polygon fill="var(--yellow-soft)" points="656,-252 565,-252 565,-216 656,-216 656,-252" stroke="var(--ink)"></polygon><text font-family="var(--svg-font-family)" font-size="var(--svg-font-size-label)" text-anchor="middle" x="610.5" y="-237.4">DNS</text><text font-family="var(--svg-font-family)" font-size="var(--svg-font-size-label)" text-anchor="middle" x="610.5" y="-224.4">53, UDP/TCP</text></g><g class="edge" id="edge6"><title>DNS-&gt;TCP</title><path d="M564.92-218.77C561.74-217.82 558.57-216.89 555.5-216c-46.02 13.27-98.38 27.23-137.69 37.5" fill="none" stroke="var(--ink)"></path><polygon fill="var(--ink)" points="418.66,-175.11 408.1,-175.98 416.9,-181.88 418.66,-175.11" stroke="var(--ink)"></polygon></g><g class="edge" id="edge5"><title>DNS-&gt;UDP</title><path d="M622.37-215.7C628-207.47 634.85-197.48 641.07-188.42" fill="none" stroke="var(--ink)"></path><polygon fill="var(--ink)" points="644,-190.33 646.77,-180.1 638.23,-186.37 644,-190.33" stroke="var(--ink)"></polygon></g><g class="node" id="node17"><title>DHCP</title><polygon fill="var(--yellow-soft)" points="840,-252 757,-252 757,-216 840,-216 840,-252" stroke="var(--ink)"></polygon><text font-family="var(--svg-font-family)" font-size="var(--svg-font-size-label)" text-anchor="middle" x="798.5" y="-237.4">DHCP</text><text font-family="var(--svg-font-family)" font-size="var(--svg-font-size-label)" text-anchor="middle" x="798.5" y="-224.4">67/68, UDP</text></g><g class="edge" id="edge7"><title>DHCP-&gt;UDP</title><path d="M764.25-215.88C745.44-206.47 721.92-194.71 701.83-184.67" fill="none" stroke="var(--ink)"></path><polygon fill="var(--ink)" points="703.39,-181.53 692.88,-180.19 700.26,-187.79 703.39,-181.53" stroke="var(--ink)"></polygon></g></g></svg>