<svg xmlns="http://www.w3.org/2000/svg" class="markmap mm-3f0sd7-1" width="1264" height="300" viewBox="0 0 1264 300"><style/><g transform="translate(23.61038961038969,143.49188311688312) scale(0.9870129870129869)"><path class="markmap-link" data-depth="3" data-path="1.2.3" d="M208,-64.156C248,-64.156,248,-117.094,288,-117.094" stroke-width="1.375" stroke="rgb(44, 160, 44)"/><path class="markmap-link" data-depth="3" data-path="1.2.4" d="M208,-64.156C248,-64.156,248,-90.719,288,-90.719" stroke-width="1.375" stroke="rgb(214, 39, 40)"/><path class="markmap-link" data-depth="3" data-path="1.2.5" d="M208,-64.156C248,-64.156,248,-64.344,288,-64.344" stroke-width="1.375" stroke="rgb(148, 103, 189)"/><path class="markmap-link" data-depth="3" data-path="1.2.6" d="M208,-64.156C248,-64.156,248,-37.969,288,-37.969" stroke-width="1.375" stroke="rgb(140, 86, 75)"/><path class="markmap-link" data-depth="3" data-path="1.2.7" d="M208,-64.156C248,-64.156,248,-11.594,288,-11.594" stroke-width="1.375" stroke="rgb(227, 119, 194)"/><path class="markmap-link" data-depth="3" data-path="1.8.9" d="M240,85.906C280,85.906,280,19.781,320,19.781" stroke-width="1.375" stroke="rgb(188, 189, 34)"/><path class="markmap-link" data-depth="3" data-path="1.8.10" d="M240,85.906C280,85.906,280,46.156,320,46.156" stroke-width="1.375" stroke="rgb(23, 190, 207)"/><path class="markmap-link" data-depth="3" data-path="1.8.11" d="M240,85.906C280,85.906,280,72.531,320,72.531" stroke-width="1.375" stroke="rgb(31, 119, 180)"/><path class="markmap-link" data-depth="3" data-path="1.8.12" d="M240,85.906C280,85.906,280,98.906,320,98.906" stroke-width="1.375" stroke="rgb(255, 127, 14)"/><path class="markmap-link" data-depth="3" data-path="1.8.13" d="M240,85.906C280,85.906,280,125.281,320,125.281" stroke-width="1.375" stroke="rgb(44, 160, 44)"/><path class="markmap-link" data-depth="3" data-path="1.8.14" d="M240,85.906C280,85.906,280,151.656,320,151.656" stroke-width="1.375" stroke="rgb(214, 39, 40)"/><path class="markmap-link" data-depth="2" data-path="1.2" d="M80,11.25C120,11.25,120,-64.156,160,-64.156" stroke-width="1.75" stroke="rgb(255, 127, 14)"/><path class="markmap-link" data-depth="2" data-path="1.8" d="M80,11.25C120,11.25,120,85.906,160,85.906" stroke-width="1.75" stroke="rgb(127, 127, 127)"/><g class="markmap-highlight"/><g data-depth="3" data-path="1.2.3" class="markmap-node" transform="translate(288, -137.78125)"><line stroke="#2ca02c" stroke-width="1.375" x1="-1" x2="578" y1="20.6875" y2="20.6875"/><foreignObject class="markmap-foreign" x="8" y="0" style="opacity: 1;" width="560" height="20"><div xmlns="http://www.w3.org/1999/xhtml"><div xmlns="http://www.w3.org/1999/xhtml">基本概念：虚拟和逻辑地址，地址转换，内存共享，内存保护，内存分配和回收</div></div></foreignObject></g><g data-depth="3" data-path="1.2.4" class="markmap-node" transform="translate(288, -111.40625)"><line stroke="#d62728" stroke-width="1.375" x1="-1" x2="146" y1="20.6875" y2="20.6875"/><foreignObject class="markmap-foreign" x="8" y="0" style="opacity: 1;" width="128" height="20"><div xmlns="http://www.w3.org/1999/xhtml"><div xmlns="http://www.w3.org/1999/xhtml">连续分配管理方式</div></div></foreignObject></g><g data-depth="3" data-path="1.2.5" class="markmap-node" transform="translate(288, -85.03125)"><line stroke="#9467bd" stroke-width="1.375" x1="-1" x2="82" y1="20.6875" y2="20.6875"/><foreignObject class="markmap-foreign" x="8" y="0" style="opacity: 1;" width="64" height="20"><div xmlns="http://www.w3.org/1999/xhtml"><div xmlns="http://www.w3.org/1999/xhtml">页式管理</div></div></foreignObject></g><g data-depth="3" data-path="1.2.6" class="markmap-node" transform="translate(288, -58.65625)"><line stroke="#8c564b" stroke-width="1.375" x1="-1" x2="82" y1="20.6875" y2="20.6875"/><foreignObject class="markmap-foreign" x="8" y="0" style="opacity: 1;" width="64" height="20"><div xmlns="http://www.w3.org/1999/xhtml"><div xmlns="http://www.w3.org/1999/xhtml">段式管理</div></div></foreignObject></g><g data-depth="3" data-path="1.2.7" class="markmap-node" transform="translate(288, -32.28125)"><line stroke="#e377c2" stroke-width="1.375" x1="-1" x2="98" y1="20.6875" y2="20.6875"/><foreignObject class="markmap-foreign" x="8" y="0" style="opacity: 1;" width="80" height="20"><div xmlns="http://www.w3.org/1999/xhtml"><div xmlns="http://www.w3.org/1999/xhtml">段页式管理</div></div></foreignObject></g><g data-depth="2" data-path="1.2" class="markmap-node" transform="translate(160, -85.03125)"><line stroke="#ff7f0e" stroke-width="1.75" x1="-1" x2="50" y1="20.875" y2="20.875"/><circle stroke-width="1.5" r="6" stroke="#ff7f0e" fill="var(--markmap-circle-open-bg)" cx="48" cy="20.875"/><foreignObject class="markmap-foreign" x="8" y="0" style="opacity: 1;" width="32" height="20"><div xmlns="http://www.w3.org/1999/xhtml"><div xmlns="http://www.w3.org/1999/xhtml">基础</div></div></foreignObject></g><g data-depth="3" data-path="1.8.9" class="markmap-node" transform="translate(320, -0.90625)"><line stroke="#bcbd22" stroke-width="1.375" x1="-1" x2="82" y1="20.6875" y2="20.6875"/><foreignObject class="markmap-foreign" x="8" y="0" style="opacity: 1;" width="64" height="20"><div xmlns="http://www.w3.org/1999/xhtml"><div xmlns="http://www.w3.org/1999/xhtml">基本概念</div></div></foreignObject></g><g data-depth="3" data-path="1.8.10" class="markmap-node" transform="translate(320, 25.46875)"><line stroke="#17becf" stroke-width="1.375" x1="-1" x2="114" y1="20.6875" y2="20.6875"/><foreignObject class="markmap-foreign" x="8" y="0" style="opacity: 1;" width="96" height="20"><div xmlns="http://www.w3.org/1999/xhtml"><div xmlns="http://www.w3.org/1999/xhtml">请求页式管理</div></div></foreignObject></g><g data-depth="3" data-path="1.8.11" class="markmap-node" transform="translate(320, 51.84375)"><line stroke="#1f77b4" stroke-width="1.375" x1="-1" x2="82" y1="20.6875" y2="20.6875"/><foreignObject class="markmap-foreign" x="8" y="0" style="opacity: 1;" width="64" height="20"><div xmlns="http://www.w3.org/1999/xhtml"><div xmlns="http://www.w3.org/1999/xhtml">页框分配</div></div></foreignObject></g><g data-depth="3" data-path="1.8.12" class="markmap-node" transform="translate(320, 78.21875)"><line stroke="#ff7f0e" stroke-width="1.375" x1="-1" x2="98" y1="20.6875" y2="20.6875"/><foreignObject class="markmap-foreign" x="8" y="0" style="opacity: 1;" width="80" height="20"><div xmlns="http://www.w3.org/1999/xhtml"><div xmlns="http://www.w3.org/1999/xhtml">页置换算法</div></div></foreignObject></g><g data-depth="3" data-path="1.8.13" class="markmap-node" transform="translate(320, 104.59375)"><line stroke="#2ca02c" stroke-width="1.375" x1="-1" x2="114" y1="20.6875" y2="20.6875"/><foreignObject class="markmap-foreign" x="8" y="0" style="opacity: 1;" width="96" height="20"><div xmlns="http://www.w3.org/1999/xhtml"><div xmlns="http://www.w3.org/1999/xhtml">内存映射文件</div></div></foreignObject></g><g data-depth="3" data-path="1.8.14" class="markmap-node" transform="translate(320, 130.96875)"><line stroke="#d62728" stroke-width="1.375" x1="-1" x2="290" y1="20.6875" y2="20.6875"/><foreignObject class="markmap-foreign" x="8" y="0" style="opacity: 1;" width="272" height="20"><div xmlns="http://www.w3.org/1999/xhtml"><div xmlns="http://www.w3.org/1999/xhtml">虚拟存储器性能的影响因素和改进方法</div></div></foreignObject></g><g data-depth="2" data-path="1.8" class="markmap-node" transform="translate(160, 65.03125)"><line stroke="#7f7f7f" stroke-width="1.75" x1="-1" x2="82" y1="20.875" y2="20.875"/><circle stroke-width="1.5" r="6" stroke="#7f7f7f" fill="var(--markmap-circle-open-bg)" cx="80" cy="20.875"/><foreignObject class="markmap-foreign" x="8" y="0" style="opacity: 1;" width="64" height="20"><div xmlns="http://www.w3.org/1999/xhtml"><div xmlns="http://www.w3.org/1999/xhtml">虚拟内存</div></div></foreignObject></g><g data-depth="1" data-path="1" class="markmap-node" transform="translate(0, -10)"><line stroke="#1f77b4" stroke-width="2.5" x1="-1" x2="82" y1="21.25" y2="21.25"/><circle stroke-width="1.5" r="6" stroke="#1f77b4" fill="var(--markmap-circle-open-bg)" cx="80" cy="21.25"/><foreignObject class="markmap-foreign" x="8" y="0" style="opacity: 1;" width="64" height="20"><div xmlns="http://www.w3.org/1999/xhtml"><div xmlns="http://www.w3.org/1999/xhtml">内存管理</div></div></foreignObject></g></g></svg>