<svg class="markmap mm-hpad34-1" xmlns="http://www.w3.org/2000/svg" width="902" height="300" viewBox="0 0 902 300" preserveAspectRatio="xMidYMid meet" style="font-family:var(--svg-font-family); color: var(--ink); max-width: 100%; height: auto;"><style></style><g transform="translate(34,150) scale(2)"><path class="markmap-link" data-depth="3" data-path="1.3.4" d="M256,19.969C296,19.969,296,6.594,336,6.594" stroke-width="1.375" stroke="var(--red-deep)"></path><path class="markmap-link" data-depth="3" data-path="1.3.5" d="M256,19.969C296,19.969,296,32.969,336,32.969" stroke-width="1.375" stroke="var(--purple-deep)"></path><path class="markmap-link" data-depth="2" data-path="1.2" d="M64,11.25C104,11.25,104,-24.969,144,-24.969" stroke-width="1.75" stroke="var(--orange-mid)"></path><path class="markmap-link" data-depth="2" data-path="1.3" d="M64,11.25C104,11.25,104,19.969,144,19.969" stroke-width="1.75" stroke="var(--lime-mid)"></path><path class="markmap-link" data-depth="2" data-path="1.6" d="M64,11.25C104,11.25,104,46.719,144,46.719" stroke-width="1.75" stroke="var(--coral-deep)"></path><g class="markmap-highlight"></g><g data-depth="2" data-path="1.2" class="markmap-node" transform="translate(144, -45.84375)"><line stroke="var(--orange-mid)" stroke-width="1.75" x1="-1" x2="146" y1="20.875" y2="20.875"></line><text class="markmap-label" x="8" y="16" font-size="var(--svg-font-size-title)" font-family="var(--svg-font-family)" fill="var(--ink)">线性表的基本概念</text></g><g data-depth="3" data-path="1.3.4" class="markmap-node" transform="translate(336, -14.09375)"><line stroke="var(--red-deep)" stroke-width="1.375" x1="-1" x2="82" y1="20.6875" y2="20.6875"></line><text class="markmap-label" x="8" y="16" font-size="var(--svg-font-size-title)" font-family="var(--svg-font-family)" fill="var(--ink)">顺序存储</text></g><g data-depth="3" data-path="1.3.5" class="markmap-node" transform="translate(336, 12.28125)"><line stroke="var(--purple-deep)" stroke-width="1.375" x1="-1" x2="82" y1="20.6875" y2="20.6875"></line><text class="markmap-label" x="8" y="16" font-size="var(--svg-font-size-title)" font-family="var(--svg-font-family)" fill="var(--ink)">链式存储</text></g><g data-depth="2" data-path="1.3" class="markmap-node" transform="translate(144, -0.90625)"><line stroke="var(--lime-mid)" stroke-width="1.75" x1="-1" x2="114" y1="20.875" y2="20.875"></line><circle stroke-width="1.5" r="6" stroke="var(--lime-mid)" fill="var(--surface)" cx="112" cy="20.875"></circle><text class="markmap-label" x="8" y="16" font-size="var(--svg-font-size-title)" font-family="var(--svg-font-family)" fill="var(--ink)">线性表的实现</text></g><g data-depth="2" data-path="1.6" class="markmap-node" transform="translate(144, 25.84375)"><line stroke="var(--coral-deep)" stroke-width="1.75" x1="-1" x2="114" y1="20.875" y2="20.875"></line><text class="markmap-label" x="8" y="16" font-size="var(--svg-font-size-title)" font-family="var(--svg-font-family)" fill="var(--ink)">线性表的应用</text></g><g data-depth="1" data-path="1" class="markmap-node" transform="translate(0, -10)"><line stroke="var(--blue-deep)" stroke-width="2.5" x1="-1" x2="66" y1="21.25" y2="21.25"></line><circle stroke-width="1.5" r="6" stroke="var(--blue-deep)" fill="var(--surface)" cx="64" cy="21.25"></circle><text class="markmap-label" x="8" y="16" font-size="var(--svg-font-size-title)" font-family="var(--svg-font-family)" fill="var(--ink)">线性表</text></g></g></svg>